REM DIRINDEX 1\5,1\2\6,1\2\7,1\3\8,1\3\9,1\3\10,1\3\11,1\4\12,1\4\13,1\4\14
REM DIRNAME cjc042,folder01,folder02,folder03,folder04,folder05,folder06,folder07,folder08,folder09,folder10,folder11,folder12,folder13
TITLE ""
FILE "4Q_h_123-138.mp3" MP3
  TRACK 01 AUDIO
    TITLE "12:cjc042_0374"
    INDEX 01 00:00:00
  TRACK 02 AUDIO
    TITLE "0:"
    INDEX 01 00:02:24
  TRACK 03 AUDIO
    TITLE "13:cjc042_0375"
    INDEX 01 00:03:08
  TRACK 04 AUDIO
    TITLE "0:"
    INDEX 01 00:05:48
  TRACK 05 AUDIO
    TITLE "14:cjc042_0376"
    INDEX 01 00:06:31
  TRACK 06 AUDIO
    TITLE "0:"
    INDEX 01 00:08:60
  TRACK 07 AUDIO
    TITLE "12:cjc042_0377"
    INDEX 01 00:09:42
  TRACK 08 AUDIO
    TITLE "0:"
    INDEX 01 00:11:15
  TRACK 09 AUDIO
    TITLE "13:cjc042_0378"
    INDEX 01 00:11:66
  TRACK 10 AUDIO
    TITLE "0:"
    INDEX 01 00:13:39
  TRACK 11 AUDIO
    TITLE "14:cjc042_0379"
    INDEX 01 00:14:15
  TRACK 12 AUDIO
    TITLE "0:"
    INDEX 01 00:17:23
  TRACK 13 AUDIO
    TITLE "12:cjc042_0380"
    INDEX 01 00:17:72
  TRACK 14 AUDIO
    TITLE "0:"
    INDEX 01 00:21:11
  TRACK 15 AUDIO
    TITLE "13:cjc042_0381"
    INDEX 01 00:21:58
  TRACK 16 AUDIO
    TITLE "0:"
    INDEX 01 00:24:69
  TRACK 17 AUDIO
    TITLE "14:cjc042_0382"
    INDEX 01 00:25:45
  TRACK 18 AUDIO
    TITLE "0:"
    INDEX 01 00:28:27
  TRACK 19 AUDIO
    TITLE "12:cjc042_0383"
    INDEX 01 00:29:03
  TRACK 20 AUDIO
    TITLE "0:"
    INDEX 01 00:31:39
  TRACK 21 AUDIO
    TITLE "13:cjc042_0384"
    INDEX 01 00:32:17
  TRACK 22 AUDIO
    TITLE "0:"
    INDEX 01 00:34:55
  TRACK 23 AUDIO
    TITLE "14:cjc042_0385"
    INDEX 01 00:35:31
  TRACK 24 AUDIO
    TITLE "0:"
    INDEX 01 00:37:24
  TRACK 25 AUDIO
    TITLE "12:cjc042_0386"
    INDEX 01 00:38:06
  TRACK 26 AUDIO
    TITLE "0:"
    INDEX 01 00:41:16
  TRACK 27 AUDIO
    TITLE "13:cjc042_0387"
    INDEX 01 00:41:65
  TRACK 28 AUDIO
    TITLE "0:"
    INDEX 01 00:44:73
  TRACK 29 AUDIO
    TITLE "14:cjc042_0388"
    INDEX 01 00:45:49
  TRACK 30 AUDIO
    TITLE "0:"
    INDEX 01 00:48:12
  TRACK 31 AUDIO
    TITLE "12:cjc042_0389"
    INDEX 01 00:48:73
  TRACK 32 AUDIO
    TITLE "0:"
    INDEX 01 00:51:34
  TRACK 33 AUDIO
    TITLE "13:cjc042_0390"
    INDEX 01 00:52:20
  TRACK 34 AUDIO
    TITLE "0:"
    INDEX 01 00:54:54
  TRACK 35 AUDIO
    TITLE "14:cjc042_0391"
    INDEX 01 00:55:36
  TRACK 36 AUDIO
    TITLE "0:"
    INDEX 01 00:57:66
  TRACK 37 AUDIO
    TITLE "12:cjc042_0392"
    INDEX 01 00:58:46
  TRACK 38 AUDIO
    TITLE "0:"
    INDEX 01 01:01:19
  TRACK 39 AUDIO
    TITLE "13:cjc042_0393"
    INDEX 01 01:01:70
  TRACK 40 AUDIO
    TITLE "0:"
    INDEX 01 01:04:43
  TRACK 41 AUDIO
    TITLE "14:cjc042_0394"
    INDEX 01 01:05:19
  TRACK 42 AUDIO
    TITLE "0:"
    INDEX 01 01:08:35
  TRACK 43 AUDIO
    TITLE "12:cjc042_0395"
    INDEX 01 01:09:10
  TRACK 44 AUDIO
    TITLE "0:"
    INDEX 01 01:11:09
  TRACK 45 AUDIO
    TITLE "13:cjc042_0396"
    INDEX 01 01:11:62
  TRACK 46 AUDIO
    TITLE "0:"
    INDEX 01 01:13:63
  TRACK 47 AUDIO
    TITLE "14:cjc042_0397"
    INDEX 01 01:14:45
  TRACK 48 AUDIO
    TITLE "0:"
    INDEX 01 01:17:39
  TRACK 49 AUDIO
    TITLE "12:cjc042_0398"
    INDEX 01 01:18:21
  TRACK 50 AUDIO
    TITLE "0:"
    INDEX 01 01:21:10
  TRACK 51 AUDIO
    TITLE "13:cjc042_0399"
    INDEX 01 01:21:61
  TRACK 52 AUDIO
    TITLE "0:"
    INDEX 01 01:24:49
  TRACK 53 AUDIO
    TITLE "14:cjc042_0400"
    INDEX 01 01:25:21
  TRACK 54 AUDIO
    TITLE "0:"
    INDEX 01 01:28:33
  TRACK 55 AUDIO
    TITLE "12:cjc042_0401"
    INDEX 01 01:29:15
  TRACK 56 AUDIO
    TITLE "0:"
    INDEX 01 01:32:06
  TRACK 57 AUDIO
    TITLE "13:cjc042_0402"
    INDEX 01 01:32:57
  TRACK 58 AUDIO
    TITLE "0:"
    INDEX 01 01:35:45
  TRACK 59 AUDIO
    TITLE "14:cjc042_0403"
    INDEX 01 01:36:23
  TRACK 60 AUDIO
    TITLE "0:"
    INDEX 01 01:39:27
  TRACK 61 AUDIO
    TITLE "12:cjc042_0404"
    INDEX 01 01:40:05
  TRACK 62 AUDIO
    TITLE "0:"
    INDEX 01 01:43:05
  TRACK 63 AUDIO
    TITLE "13:cjc042_0405"
    INDEX 01 01:43:60
  TRACK 64 AUDIO
    TITLE "0:"
    INDEX 01 01:46:61
  TRACK 65 AUDIO
    TITLE "14:cjc042_0406"
    INDEX 01 01:47:42
  TRACK 66 AUDIO
    TITLE "0:"
    INDEX 01 01:50:25
  TRACK 67 AUDIO
    TITLE "12:cjc042_0407"
    INDEX 01 01:50:74
  TRACK 68 AUDIO
    TITLE "0:"
    INDEX 01 01:53:06
  TRACK 69 AUDIO
    TITLE "13:cjc042_0408"
    INDEX 01 01:53:61
  TRACK 70 AUDIO
    TITLE "0:"
    INDEX 01 01:55:67
  TRACK 71 AUDIO
    TITLE "14:cjc042_0409"
    INDEX 01 01:56:45
  TRACK 72 AUDIO
    TITLE "0:"
    INDEX 01 01:58:40
  TRACK 73 AUDIO
    TITLE "12:cjc042_0410"
    INDEX 01 01:59:12
  TRACK 74 AUDIO
    TITLE "0:"
    INDEX 01 02:00:74
  TRACK 75 AUDIO
    TITLE "13:cjc042_0411"
    INDEX 01 02:01:48
  TRACK 76 AUDIO
    TITLE "0:"
    INDEX 01 02:03:36
  TRACK 77 AUDIO
    TITLE "14:cjc042_0412"
    INDEX 01 02:04:12
  TRACK 78 AUDIO
    TITLE "0:"
    INDEX 01 02:06:24
  TRACK 79 AUDIO
    TITLE "12:cjc042_0413"
    INDEX 01 02:06:71
  TRACK 80 AUDIO
    TITLE "0:"
    INDEX 01 02:08:66
  TRACK 81 AUDIO
    TITLE "13:cjc042_0414"
    INDEX 01 02:09:42
  TRACK 82 AUDIO
    TITLE "0:"
    INDEX 01 02:11:39
  TRACK 83 AUDIO
    TITLE "14:cjc042_0415"
    INDEX 01 02:12:17
  TRACK 84 AUDIO
    TITLE "0:"
    INDEX 01 02:14:18
  TRACK 85 AUDIO
    TITLE "12:cjc042_0416"
    INDEX 01 02:14:67
  TRACK 86 AUDIO
    TITLE "0:"
    INDEX 01 02:16:58
  TRACK 87 AUDIO
    TITLE "13:cjc042_0417"
    INDEX 01 02:17:32
  TRACK 88 AUDIO
    TITLE "0:"
    INDEX 01 02:19:25
  TRACK 89 AUDIO
    TITLE "14:cjc042_0418"
    INDEX 01 02:20:01
  TRACK 90 AUDIO
    TITLE "0:"
    INDEX 01 02:22:33
  TRACK 91 AUDIO
    TITLE "12:cjc042_0419"
    INDEX 01 02:23:07
  TRACK 92 AUDIO
    TITLE "0:"
    INDEX 01 02:24:49
  TRACK 93 AUDIO
    TITLE "13:cjc042_0420"
    INDEX 01 02:25:21
  TRACK 94 AUDIO
    TITLE "0:"
    INDEX 01 02:26:64
  TRACK 95 AUDIO
    TITLE "14:cjc042_0421"
    INDEX 01 02:27:40
  TRACK 96 AUDIO
    TITLE "0:"
    INDEX 01 02:29:43
